<mxfile host="app.diagrams.net" modified="2023-05-29T23:15:08.194Z" agent="Mozilla/5.0 (Windows NT 10.0; Win64; x64) AppleWebKit/537.36 (KHTML, like Gecko) Chrome/113.0.0.0 Safari/537.36" etag="6sTb1KPGTZkWCuRXNVUj" version="21.3.3" type="device" pages="10">
  <diagram id="C5RBs43oDa-KdzZeNtuy" name="A">
    <mxGraphModel dx="712" dy="817" grid="1" gridSize="10" guides="1" tooltips="1" connect="1" arrows="1" fold="1" page="1" pageScale="1" pageWidth="827" pageHeight="1169" math="0" shadow="0">
      <root>
        <mxCell id="WIyWlLk6GJQsqaUBKTNV-0" />
        <mxCell id="WIyWlLk6GJQsqaUBKTNV-1" parent="WIyWlLk6GJQsqaUBKTNV-0" />
        <mxCell id="WIyWlLk6GJQsqaUBKTNV-2" value="" style="rounded=0;html=1;jettySize=auto;orthogonalLoop=1;fontSize=11;endArrow=block;endFill=0;endSize=8;strokeWidth=1;shadow=0;labelBackgroundColor=none;edgeStyle=orthogonalEdgeStyle;" parent="WIyWlLk6GJQsqaUBKTNV-1" source="WIyWlLk6GJQsqaUBKTNV-3" target="WIyWlLk6GJQsqaUBKTNV-6" edge="1">
          <mxGeometry relative="1" as="geometry" />
        </mxCell>
        <mxCell id="WIyWlLk6GJQsqaUBKTNV-3" value="Lamp doesn&#39;t work" style="rounded=1;whiteSpace=wrap;html=1;fontSize=12;glass=0;strokeWidth=1;shadow=0;" parent="WIyWlLk6GJQsqaUBKTNV-1" vertex="1">
          <mxGeometry x="160" y="80" width="120" height="40" as="geometry" />
        </mxCell>
        <mxCell id="WIyWlLk6GJQsqaUBKTNV-4" value="Yes" style="rounded=0;html=1;jettySize=auto;orthogonalLoop=1;fontSize=11;endArrow=block;endFill=0;endSize=8;strokeWidth=1;shadow=0;labelBackgroundColor=none;edgeStyle=orthogonalEdgeStyle;" parent="WIyWlLk6GJQsqaUBKTNV-1" source="WIyWlLk6GJQsqaUBKTNV-6" target="WIyWlLk6GJQsqaUBKTNV-10" edge="1">
          <mxGeometry y="20" relative="1" as="geometry">
            <mxPoint as="offset" />
          </mxGeometry>
        </mxCell>
        <mxCell id="WIyWlLk6GJQsqaUBKTNV-5" value="No" style="edgeStyle=orthogonalEdgeStyle;rounded=0;html=1;jettySize=auto;orthogonalLoop=1;fontSize=11;endArrow=block;endFill=0;endSize=8;strokeWidth=1;shadow=0;labelBackgroundColor=none;" parent="WIyWlLk6GJQsqaUBKTNV-1" source="WIyWlLk6GJQsqaUBKTNV-6" target="WIyWlLk6GJQsqaUBKTNV-7" edge="1">
          <mxGeometry y="10" relative="1" as="geometry">
            <mxPoint as="offset" />
          </mxGeometry>
        </mxCell>
        <mxCell id="WIyWlLk6GJQsqaUBKTNV-6" value="Lamp&lt;br&gt;plugged in?" style="rhombus;whiteSpace=wrap;html=1;shadow=0;fontFamily=Helvetica;fontSize=12;align=center;strokeWidth=1;spacing=6;spacingTop=-4;" parent="WIyWlLk6GJQsqaUBKTNV-1" vertex="1">
          <mxGeometry x="170" y="170" width="100" height="80" as="geometry" />
        </mxCell>
        <mxCell id="WIyWlLk6GJQsqaUBKTNV-7" value="Plug in lamp" style="rounded=1;whiteSpace=wrap;html=1;fontSize=12;glass=0;strokeWidth=1;shadow=0;" parent="WIyWlLk6GJQsqaUBKTNV-1" vertex="1">
          <mxGeometry x="320" y="190" width="120" height="40" as="geometry" />
        </mxCell>
        <mxCell id="WIyWlLk6GJQsqaUBKTNV-8" value="No" style="rounded=0;html=1;jettySize=auto;orthogonalLoop=1;fontSize=11;endArrow=block;endFill=0;endSize=8;strokeWidth=1;shadow=0;labelBackgroundColor=none;edgeStyle=orthogonalEdgeStyle;" parent="WIyWlLk6GJQsqaUBKTNV-1" source="WIyWlLk6GJQsqaUBKTNV-10" target="WIyWlLk6GJQsqaUBKTNV-11" edge="1">
          <mxGeometry x="0.3333" y="20" relative="1" as="geometry">
            <mxPoint as="offset" />
          </mxGeometry>
        </mxCell>
        <mxCell id="WIyWlLk6GJQsqaUBKTNV-9" value="Yes" style="edgeStyle=orthogonalEdgeStyle;rounded=0;html=1;jettySize=auto;orthogonalLoop=1;fontSize=11;endArrow=block;endFill=0;endSize=8;strokeWidth=1;shadow=0;labelBackgroundColor=none;" parent="WIyWlLk6GJQsqaUBKTNV-1" source="WIyWlLk6GJQsqaUBKTNV-10" target="WIyWlLk6GJQsqaUBKTNV-12" edge="1">
          <mxGeometry y="10" relative="1" as="geometry">
            <mxPoint as="offset" />
          </mxGeometry>
        </mxCell>
        <mxCell id="WIyWlLk6GJQsqaUBKTNV-10" value="Bulb&lt;br&gt;burned out?" style="rhombus;whiteSpace=wrap;html=1;shadow=0;fontFamily=Helvetica;fontSize=12;align=center;strokeWidth=1;spacing=6;spacingTop=-4;" parent="WIyWlLk6GJQsqaUBKTNV-1" vertex="1">
          <mxGeometry x="170" y="290" width="100" height="80" as="geometry" />
        </mxCell>
        <mxCell id="WIyWlLk6GJQsqaUBKTNV-11" value="Repair Lamp" style="rounded=1;whiteSpace=wrap;html=1;fontSize=12;glass=0;strokeWidth=1;shadow=0;" parent="WIyWlLk6GJQsqaUBKTNV-1" vertex="1">
          <mxGeometry x="160" y="430" width="120" height="40" as="geometry" />
        </mxCell>
        <mxCell id="WIyWlLk6GJQsqaUBKTNV-12" value="Replace Bulb" style="rounded=1;whiteSpace=wrap;html=1;fontSize=12;glass=0;strokeWidth=1;shadow=0;" parent="WIyWlLk6GJQsqaUBKTNV-1" vertex="1">
          <mxGeometry x="320" y="310" width="120" height="40" as="geometry" />
        </mxCell>
        <mxCell id="4HOH1zHpV323bAWkl7Jr-3" value="" style="edgeStyle=orthogonalEdgeStyle;rounded=0;orthogonalLoop=1;jettySize=auto;html=1;" edge="1" parent="WIyWlLk6GJQsqaUBKTNV-1" source="4HOH1zHpV323bAWkl7Jr-0" target="4HOH1zHpV323bAWkl7Jr-1">
          <mxGeometry relative="1" as="geometry" />
        </mxCell>
        <mxCell id="4HOH1zHpV323bAWkl7Jr-0" value="Valor1&lt;br&gt;Valor2" style="rounded=1;whiteSpace=wrap;html=1;fontSize=12;glass=0;strokeWidth=1;shadow=0;" vertex="1" parent="WIyWlLk6GJQsqaUBKTNV-1">
          <mxGeometry x="80" y="600" width="120" height="40" as="geometry" />
        </mxCell>
        <mxCell id="4HOH1zHpV323bAWkl7Jr-4" value="" style="edgeStyle=orthogonalEdgeStyle;rounded=0;orthogonalLoop=1;jettySize=auto;html=1;" edge="1" parent="WIyWlLk6GJQsqaUBKTNV-1" source="4HOH1zHpV323bAWkl7Jr-1" target="4HOH1zHpV323bAWkl7Jr-2">
          <mxGeometry relative="1" as="geometry" />
        </mxCell>
        <mxCell id="4HOH1zHpV323bAWkl7Jr-1" value="Soma = Valor1 + Valor2" style="rounded=1;whiteSpace=wrap;html=1;fontSize=12;glass=0;strokeWidth=1;shadow=0;" vertex="1" parent="WIyWlLk6GJQsqaUBKTNV-1">
          <mxGeometry x="250" y="600" width="120" height="40" as="geometry" />
        </mxCell>
        <mxCell id="4HOH1zHpV323bAWkl7Jr-2" value="Exibir valor Soma" style="rounded=1;whiteSpace=wrap;html=1;fontSize=12;glass=0;strokeWidth=1;shadow=0;" vertex="1" parent="WIyWlLk6GJQsqaUBKTNV-1">
          <mxGeometry x="414" y="600" width="120" height="40" as="geometry" />
        </mxCell>
      </root>
    </mxGraphModel>
  </diagram>
  <diagram id="8B1gpYhCTOzxw9tDtRI5" name="B">
    <mxGraphModel dx="712" dy="817" grid="1" gridSize="10" guides="1" tooltips="1" connect="1" arrows="1" fold="1" page="1" pageScale="1" pageWidth="827" pageHeight="1169" math="0" shadow="0">
      <root>
        <mxCell id="0" />
        <mxCell id="1" parent="0" />
        <mxCell id="Emc5lwCXZDdTFglAuZSd-2" value="" style="edgeStyle=orthogonalEdgeStyle;rounded=0;orthogonalLoop=1;jettySize=auto;html=1;" edge="1" parent="1" source="9jdLhnjYzLxHuKZXPSO7-1" target="Emc5lwCXZDdTFglAuZSd-1">
          <mxGeometry relative="1" as="geometry" />
        </mxCell>
        <mxCell id="9jdLhnjYzLxHuKZXPSO7-1" value="Nome" style="rounded=1;whiteSpace=wrap;html=1;fontSize=12;glass=0;strokeWidth=1;shadow=0;" vertex="1" parent="1">
          <mxGeometry x="80" y="200" width="120" height="40" as="geometry" />
        </mxCell>
        <mxCell id="Emc5lwCXZDdTFglAuZSd-4" value="Sim" style="edgeStyle=orthogonalEdgeStyle;rounded=0;orthogonalLoop=1;jettySize=auto;html=1;entryX=0;entryY=0.5;entryDx=0;entryDy=0;" edge="1" parent="1" source="Emc5lwCXZDdTFglAuZSd-1" target="Emc5lwCXZDdTFglAuZSd-3">
          <mxGeometry relative="1" as="geometry" />
        </mxCell>
        <mxCell id="Emc5lwCXZDdTFglAuZSd-6" value="NÃ£o" style="edgeStyle=orthogonalEdgeStyle;rounded=0;orthogonalLoop=1;jettySize=auto;html=1;entryX=0;entryY=0.5;entryDx=0;entryDy=0;exitX=0.5;exitY=1;exitDx=0;exitDy=0;" edge="1" parent="1" source="Emc5lwCXZDdTFglAuZSd-1" target="Emc5lwCXZDdTFglAuZSd-5">
          <mxGeometry relative="1" as="geometry" />
        </mxCell>
        <mxCell id="Emc5lwCXZDdTFglAuZSd-1" value="Nome = &quot;Pedro&quot;" style="rhombus;whiteSpace=wrap;html=1;shadow=0;fontFamily=Helvetica;fontSize=12;align=center;strokeWidth=1;spacing=6;spacingTop=-4;" vertex="1" parent="1">
          <mxGeometry x="290" y="180" width="120" height="80" as="geometry" />
        </mxCell>
        <mxCell id="Emc5lwCXZDdTFglAuZSd-3" value="Mensagem &quot;Bem vindo Pedro!&quot;" style="rounded=1;whiteSpace=wrap;html=1;fontSize=12;glass=0;strokeWidth=1;shadow=0;" vertex="1" parent="1">
          <mxGeometry x="530" y="200" width="120" height="40" as="geometry" />
        </mxCell>
        <mxCell id="Emc5lwCXZDdTFglAuZSd-5" value="Mensagem &quot;Bem vindo Meigarom!&quot;" style="rounded=1;whiteSpace=wrap;html=1;fontSize=12;glass=0;strokeWidth=1;shadow=0;" vertex="1" parent="1">
          <mxGeometry x="530" y="280" width="120" height="40" as="geometry" />
        </mxCell>
      </root>
    </mxGraphModel>
  </diagram>
  <diagram id="FPxoU2Z7DngPUA_Cj9Fv" name="C">
    <mxGraphModel dx="712" dy="817" grid="1" gridSize="10" guides="1" tooltips="1" connect="1" arrows="1" fold="1" page="1" pageScale="1" pageWidth="827" pageHeight="1169" math="0" shadow="0">
      <root>
        <mxCell id="0" />
        <mxCell id="1" parent="0" />
        <mxCell id="2-ldtJOfMDPg-T7z8qXS-9" value="" style="edgeStyle=orthogonalEdgeStyle;rounded=0;orthogonalLoop=1;jettySize=auto;html=1;" edge="1" parent="1" source="2-ldtJOfMDPg-T7z8qXS-2" target="2-ldtJOfMDPg-T7z8qXS-7">
          <mxGeometry relative="1" as="geometry" />
        </mxCell>
        <mxCell id="2-ldtJOfMDPg-T7z8qXS-2" value="N1,&amp;nbsp;N2,&amp;nbsp;N3" style="rounded=1;whiteSpace=wrap;html=1;fontSize=12;glass=0;strokeWidth=1;shadow=0;" vertex="1" parent="1">
          <mxGeometry x="80" y="200" width="120" height="40" as="geometry" />
        </mxCell>
        <mxCell id="2-ldtJOfMDPg-T7z8qXS-6" value="Exibir, Soma" style="rounded=1;whiteSpace=wrap;html=1;fontSize=12;glass=0;strokeWidth=1;shadow=0;" vertex="1" parent="1">
          <mxGeometry x="480" y="200" width="120" height="40" as="geometry" />
        </mxCell>
        <mxCell id="2-ldtJOfMDPg-T7z8qXS-8" value="" style="edgeStyle=orthogonalEdgeStyle;rounded=0;orthogonalLoop=1;jettySize=auto;html=1;" edge="1" parent="1" source="2-ldtJOfMDPg-T7z8qXS-7" target="2-ldtJOfMDPg-T7z8qXS-6">
          <mxGeometry relative="1" as="geometry" />
        </mxCell>
        <mxCell id="2-ldtJOfMDPg-T7z8qXS-7" value="Soma = N1 + N2 + N3" style="rounded=1;whiteSpace=wrap;html=1;fontSize=12;glass=0;strokeWidth=1;shadow=0;" vertex="1" parent="1">
          <mxGeometry x="280" y="200" width="120" height="40" as="geometry" />
        </mxCell>
      </root>
    </mxGraphModel>
  </diagram>
  <diagram id="aSSxBdrClsq2bSxNIjqB" name="D">
    <mxGraphModel dx="712" dy="817" grid="1" gridSize="10" guides="1" tooltips="1" connect="1" arrows="1" fold="1" page="1" pageScale="1" pageWidth="827" pageHeight="1169" math="0" shadow="0">
      <root>
        <mxCell id="0" />
        <mxCell id="1" parent="0" />
        <mxCell id="LNfXOHpW26AgncIqs_9Y-1" value="" style="edgeStyle=orthogonalEdgeStyle;rounded=0;orthogonalLoop=1;jettySize=auto;html=1;" edge="1" parent="1" source="LNfXOHpW26AgncIqs_9Y-2" target="LNfXOHpW26AgncIqs_9Y-5">
          <mxGeometry relative="1" as="geometry" />
        </mxCell>
        <mxCell id="LNfXOHpW26AgncIqs_9Y-2" value="N1,&amp;nbsp;N2" style="rounded=1;whiteSpace=wrap;html=1;fontSize=12;glass=0;strokeWidth=1;shadow=0;" vertex="1" parent="1">
          <mxGeometry x="80" y="200" width="120" height="40" as="geometry" />
        </mxCell>
        <mxCell id="LNfXOHpW26AgncIqs_9Y-3" value="Exibir, Media" style="rounded=1;whiteSpace=wrap;html=1;fontSize=12;glass=0;strokeWidth=1;shadow=0;" vertex="1" parent="1">
          <mxGeometry x="480" y="200" width="120" height="40" as="geometry" />
        </mxCell>
        <mxCell id="LNfXOHpW26AgncIqs_9Y-4" value="" style="edgeStyle=orthogonalEdgeStyle;rounded=0;orthogonalLoop=1;jettySize=auto;html=1;" edge="1" parent="1" source="LNfXOHpW26AgncIqs_9Y-5" target="LNfXOHpW26AgncIqs_9Y-3">
          <mxGeometry relative="1" as="geometry" />
        </mxCell>
        <mxCell id="LNfXOHpW26AgncIqs_9Y-5" value="Media = (N1 + N2) / 2" style="rounded=1;whiteSpace=wrap;html=1;fontSize=12;glass=0;strokeWidth=1;shadow=0;" vertex="1" parent="1">
          <mxGeometry x="280" y="200" width="120" height="40" as="geometry" />
        </mxCell>
      </root>
    </mxGraphModel>
  </diagram>
  <diagram id="ncoXDJspe2WGwo7XfP-G" name="E">
    <mxGraphModel dx="712" dy="817" grid="1" gridSize="10" guides="1" tooltips="1" connect="1" arrows="1" fold="1" page="1" pageScale="1" pageWidth="827" pageHeight="1169" math="0" shadow="0">
      <root>
        <mxCell id="0" />
        <mxCell id="1" parent="0" />
        <mxCell id="uqjnkh03jTusUhEsJb66-1" value="" style="edgeStyle=orthogonalEdgeStyle;rounded=0;orthogonalLoop=1;jettySize=auto;html=1;" edge="1" parent="1" source="uqjnkh03jTusUhEsJb66-2" target="uqjnkh03jTusUhEsJb66-5">
          <mxGeometry relative="1" as="geometry" />
        </mxCell>
        <mxCell id="uqjnkh03jTusUhEsJb66-2" value="N1,&amp;nbsp;N2, N3" style="rounded=1;whiteSpace=wrap;html=1;fontSize=12;glass=0;strokeWidth=1;shadow=0;" vertex="1" parent="1">
          <mxGeometry x="80" y="200" width="120" height="40" as="geometry" />
        </mxCell>
        <mxCell id="uqjnkh03jTusUhEsJb66-3" value="Exibir, Media" style="rounded=1;whiteSpace=wrap;html=1;fontSize=12;glass=0;strokeWidth=1;shadow=0;" vertex="1" parent="1">
          <mxGeometry x="480" y="200" width="120" height="40" as="geometry" />
        </mxCell>
        <mxCell id="uqjnkh03jTusUhEsJb66-4" value="" style="edgeStyle=orthogonalEdgeStyle;rounded=0;orthogonalLoop=1;jettySize=auto;html=1;" edge="1" parent="1" source="uqjnkh03jTusUhEsJb66-5" target="uqjnkh03jTusUhEsJb66-3">
          <mxGeometry relative="1" as="geometry" />
        </mxCell>
        <mxCell id="uqjnkh03jTusUhEsJb66-5" value="Media = (N1 + N2 + N3) / 3" style="rounded=1;whiteSpace=wrap;html=1;fontSize=12;glass=0;strokeWidth=1;shadow=0;" vertex="1" parent="1">
          <mxGeometry x="280" y="200" width="120" height="40" as="geometry" />
        </mxCell>
      </root>
    </mxGraphModel>
  </diagram>
  <diagram id="AhfVK5HCYfdFAO59STou" name="F">
    <mxGraphModel dx="712" dy="817" grid="1" gridSize="10" guides="1" tooltips="1" connect="1" arrows="1" fold="1" page="1" pageScale="1" pageWidth="827" pageHeight="1169" math="0" shadow="0">
      <root>
        <mxCell id="0" />
        <mxCell id="1" parent="0" />
        <mxCell id="Y0fmGi15MSAdvciILLsg-2" value="" style="edgeStyle=orthogonalEdgeStyle;rounded=0;orthogonalLoop=1;jettySize=auto;html=1;" edge="1" parent="1" source="Y0fmGi15MSAdvciILLsg-3" target="Y0fmGi15MSAdvciILLsg-6">
          <mxGeometry relative="1" as="geometry" />
        </mxCell>
        <mxCell id="Y0fmGi15MSAdvciILLsg-3" value="Idade" style="rounded=1;whiteSpace=wrap;html=1;fontSize=12;glass=0;strokeWidth=1;shadow=0;" vertex="1" parent="1">
          <mxGeometry x="80" y="200" width="120" height="40" as="geometry" />
        </mxCell>
        <mxCell id="Y0fmGi15MSAdvciILLsg-4" value="Sim" style="edgeStyle=orthogonalEdgeStyle;rounded=0;orthogonalLoop=1;jettySize=auto;html=1;entryX=0;entryY=0.5;entryDx=0;entryDy=0;" edge="1" parent="1" source="Y0fmGi15MSAdvciILLsg-6" target="Y0fmGi15MSAdvciILLsg-7">
          <mxGeometry relative="1" as="geometry" />
        </mxCell>
        <mxCell id="Y0fmGi15MSAdvciILLsg-5" value="NÃ£o" style="edgeStyle=orthogonalEdgeStyle;rounded=0;orthogonalLoop=1;jettySize=auto;html=1;entryX=0;entryY=0.5;entryDx=0;entryDy=0;exitX=0.5;exitY=1;exitDx=0;exitDy=0;" edge="1" parent="1" source="Y0fmGi15MSAdvciILLsg-6" target="Y0fmGi15MSAdvciILLsg-8">
          <mxGeometry relative="1" as="geometry" />
        </mxCell>
        <mxCell id="Y0fmGi15MSAdvciILLsg-6" value="Idade &amp;gt;= 18" style="rhombus;whiteSpace=wrap;html=1;shadow=0;fontFamily=Helvetica;fontSize=12;align=center;strokeWidth=1;spacing=6;spacingTop=-4;" vertex="1" parent="1">
          <mxGeometry x="290" y="180" width="120" height="80" as="geometry" />
        </mxCell>
        <mxCell id="Y0fmGi15MSAdvciILLsg-7" value="Mensagem &quot;Maior de idade&quot;" style="rounded=1;whiteSpace=wrap;html=1;fontSize=12;glass=0;strokeWidth=1;shadow=0;" vertex="1" parent="1">
          <mxGeometry x="530" y="200" width="120" height="40" as="geometry" />
        </mxCell>
        <mxCell id="Y0fmGi15MSAdvciILLsg-8" value="Mensagem &quot;NÃ£o Ã© maior de idade&quot;" style="rounded=1;whiteSpace=wrap;html=1;fontSize=12;glass=0;strokeWidth=1;shadow=0;" vertex="1" parent="1">
          <mxGeometry x="530" y="280" width="120" height="40" as="geometry" />
        </mxCell>
      </root>
    </mxGraphModel>
  </diagram>
  <diagram id="KwDY82vG-Te7gPnF5IpR" name="G">
    <mxGraphModel dx="712" dy="817" grid="1" gridSize="10" guides="1" tooltips="1" connect="1" arrows="1" fold="1" page="1" pageScale="1" pageWidth="827" pageHeight="1169" math="0" shadow="0">
      <root>
        <mxCell id="0" />
        <mxCell id="1" parent="0" />
      </root>
    </mxGraphModel>
  </diagram>
  <diagram id="3wSu4RvbhKuCTshrrXrK" name="H">
    <mxGraphModel dx="712" dy="817" grid="1" gridSize="10" guides="1" tooltips="1" connect="1" arrows="1" fold="1" page="1" pageScale="1" pageWidth="827" pageHeight="1169" math="0" shadow="0">
      <root>
        <mxCell id="0" />
        <mxCell id="1" parent="0" />
        <mxCell id="98j974b1pVbM8-QE-zcP-1" value="" style="edgeStyle=orthogonalEdgeStyle;rounded=0;orthogonalLoop=1;jettySize=auto;html=1;" edge="1" parent="1" source="98j974b1pVbM8-QE-zcP-2" target="98j974b1pVbM8-QE-zcP-5">
          <mxGeometry relative="1" as="geometry" />
        </mxCell>
        <mxCell id="98j974b1pVbM8-QE-zcP-2" value="Valor1, Valor2, Valor3" style="rounded=1;whiteSpace=wrap;html=1;fontSize=12;glass=0;strokeWidth=1;shadow=0;" vertex="1" parent="1">
          <mxGeometry x="100" y="200" width="120" height="40" as="geometry" />
        </mxCell>
        <mxCell id="98j974b1pVbM8-QE-zcP-3" value="Sim" style="edgeStyle=orthogonalEdgeStyle;rounded=0;orthogonalLoop=1;jettySize=auto;html=1;entryX=0;entryY=0.5;entryDx=0;entryDy=0;" edge="1" parent="1" source="98j974b1pVbM8-QE-zcP-5" target="98j974b1pVbM8-QE-zcP-6">
          <mxGeometry relative="1" as="geometry" />
        </mxCell>
        <mxCell id="98j974b1pVbM8-QE-zcP-4" value="NÃ£o" style="edgeStyle=orthogonalEdgeStyle;rounded=0;orthogonalLoop=1;jettySize=auto;html=1;" edge="1" parent="1" source="98j974b1pVbM8-QE-zcP-5" target="98j974b1pVbM8-QE-zcP-10">
          <mxGeometry relative="1" as="geometry" />
        </mxCell>
        <mxCell id="98j974b1pVbM8-QE-zcP-5" value="Valor1 &amp;gt; Valor 2&lt;br&gt;e&lt;br&gt;Valor1 &amp;gt; Valor3" style="rhombus;whiteSpace=wrap;html=1;shadow=0;fontFamily=Helvetica;fontSize=12;align=center;strokeWidth=1;spacing=6;spacingTop=-4;" vertex="1" parent="1">
          <mxGeometry x="280" y="180" width="170" height="80" as="geometry" />
        </mxCell>
        <mxCell id="98j974b1pVbM8-QE-zcP-6" value="Mensagem, Valor1" style="rounded=1;whiteSpace=wrap;html=1;fontSize=12;glass=0;strokeWidth=1;shadow=0;" vertex="1" parent="1">
          <mxGeometry x="530" y="200" width="120" height="40" as="geometry" />
        </mxCell>
        <mxCell id="98j974b1pVbM8-QE-zcP-7" value="Mensagem, Valor2" style="rounded=1;whiteSpace=wrap;html=1;fontSize=12;glass=0;strokeWidth=1;shadow=0;" vertex="1" parent="1">
          <mxGeometry x="530" y="320" width="120" height="40" as="geometry" />
        </mxCell>
        <mxCell id="98j974b1pVbM8-QE-zcP-8" value="Sim" style="edgeStyle=orthogonalEdgeStyle;rounded=0;orthogonalLoop=1;jettySize=auto;html=1;" edge="1" parent="1" source="98j974b1pVbM8-QE-zcP-10" target="98j974b1pVbM8-QE-zcP-7">
          <mxGeometry relative="1" as="geometry" />
        </mxCell>
        <mxCell id="98j974b1pVbM8-QE-zcP-9" value="NÃ£o" style="edgeStyle=orthogonalEdgeStyle;rounded=0;orthogonalLoop=1;jettySize=auto;html=1;entryX=0;entryY=0.5;entryDx=0;entryDy=0;exitX=0.5;exitY=1;exitDx=0;exitDy=0;" edge="1" parent="1" source="98j974b1pVbM8-QE-zcP-10" target="98j974b1pVbM8-QE-zcP-11">
          <mxGeometry relative="1" as="geometry" />
        </mxCell>
        <mxCell id="98j974b1pVbM8-QE-zcP-10" value="Valor2 &amp;gt; Valor 1&lt;br&gt;e&lt;br&gt;Valor2 &amp;gt; Valor3" style="rhombus;whiteSpace=wrap;html=1;shadow=0;fontFamily=Helvetica;fontSize=12;align=center;strokeWidth=1;spacing=6;spacingTop=-4;" vertex="1" parent="1">
          <mxGeometry x="280" y="300" width="170" height="80" as="geometry" />
        </mxCell>
        <mxCell id="98j974b1pVbM8-QE-zcP-11" value="Mensagem, Valor3" style="rounded=1;whiteSpace=wrap;html=1;fontSize=12;glass=0;strokeWidth=1;shadow=0;" vertex="1" parent="1">
          <mxGeometry x="530" y="380" width="120" height="40" as="geometry" />
        </mxCell>
      </root>
    </mxGraphModel>
  </diagram>
  <diagram id="SlYXkDw0HhqFckZ1ne61" name="I">
    <mxGraphModel dx="712" dy="817" grid="1" gridSize="10" guides="1" tooltips="1" connect="1" arrows="1" fold="1" page="1" pageScale="1" pageWidth="827" pageHeight="1169" math="0" shadow="0">
      <root>
        <mxCell id="0" />
        <mxCell id="1" parent="0" />
        <mxCell id="eAyWANmD_xzuRq7Ga_uH-1" value="" style="edgeStyle=orthogonalEdgeStyle;rounded=0;orthogonalLoop=1;jettySize=auto;html=1;" edge="1" parent="1" source="eAyWANmD_xzuRq7Ga_uH-2" target="eAyWANmD_xzuRq7Ga_uH-5">
          <mxGeometry relative="1" as="geometry" />
        </mxCell>
        <mxCell id="eAyWANmD_xzuRq7Ga_uH-2" value="Valor1, Valor2, Valor3" style="rounded=1;whiteSpace=wrap;html=1;fontSize=12;glass=0;strokeWidth=1;shadow=0;" vertex="1" parent="1">
          <mxGeometry x="100" y="200" width="120" height="40" as="geometry" />
        </mxCell>
        <mxCell id="eAyWANmD_xzuRq7Ga_uH-3" value="Sim" style="edgeStyle=orthogonalEdgeStyle;rounded=0;orthogonalLoop=1;jettySize=auto;html=1;entryX=0;entryY=0.5;entryDx=0;entryDy=0;" edge="1" parent="1" source="eAyWANmD_xzuRq7Ga_uH-5" target="eAyWANmD_xzuRq7Ga_uH-6">
          <mxGeometry relative="1" as="geometry" />
        </mxCell>
        <mxCell id="eAyWANmD_xzuRq7Ga_uH-4" value="NÃ£o" style="edgeStyle=orthogonalEdgeStyle;rounded=0;orthogonalLoop=1;jettySize=auto;html=1;" edge="1" parent="1" source="eAyWANmD_xzuRq7Ga_uH-5" target="eAyWANmD_xzuRq7Ga_uH-10">
          <mxGeometry relative="1" as="geometry" />
        </mxCell>
        <mxCell id="eAyWANmD_xzuRq7Ga_uH-5" value="Valor1 &amp;gt; Valor 2&lt;br&gt;e&lt;br&gt;Valor1 &amp;gt; Valor3" style="rhombus;whiteSpace=wrap;html=1;shadow=0;fontFamily=Helvetica;fontSize=12;align=center;strokeWidth=1;spacing=6;spacingTop=-4;" vertex="1" parent="1">
          <mxGeometry x="280" y="180" width="170" height="80" as="geometry" />
        </mxCell>
        <mxCell id="eAyWANmD_xzuRq7Ga_uH-6" value="Mensagem, Valor1" style="rounded=1;whiteSpace=wrap;html=1;fontSize=12;glass=0;strokeWidth=1;shadow=0;" vertex="1" parent="1">
          <mxGeometry x="530" y="200" width="120" height="40" as="geometry" />
        </mxCell>
        <mxCell id="eAyWANmD_xzuRq7Ga_uH-7" value="Mensagem, Valor2" style="rounded=1;whiteSpace=wrap;html=1;fontSize=12;glass=0;strokeWidth=1;shadow=0;" vertex="1" parent="1">
          <mxGeometry x="530" y="320" width="120" height="40" as="geometry" />
        </mxCell>
        <mxCell id="eAyWANmD_xzuRq7Ga_uH-8" value="Sim" style="edgeStyle=orthogonalEdgeStyle;rounded=0;orthogonalLoop=1;jettySize=auto;html=1;" edge="1" parent="1" source="eAyWANmD_xzuRq7Ga_uH-10" target="eAyWANmD_xzuRq7Ga_uH-7">
          <mxGeometry relative="1" as="geometry" />
        </mxCell>
        <mxCell id="eAyWANmD_xzuRq7Ga_uH-9" value="NÃ£o" style="edgeStyle=orthogonalEdgeStyle;rounded=0;orthogonalLoop=1;jettySize=auto;html=1;entryX=0;entryY=0.5;entryDx=0;entryDy=0;exitX=0.5;exitY=1;exitDx=0;exitDy=0;" edge="1" parent="1" source="eAyWANmD_xzuRq7Ga_uH-10" target="eAyWANmD_xzuRq7Ga_uH-11">
          <mxGeometry relative="1" as="geometry" />
        </mxCell>
        <mxCell id="eAyWANmD_xzuRq7Ga_uH-10" value="Valor2 &amp;gt; Valor 1&lt;br&gt;e&lt;br&gt;Valor2 &amp;gt; Valor3" style="rhombus;whiteSpace=wrap;html=1;shadow=0;fontFamily=Helvetica;fontSize=12;align=center;strokeWidth=1;spacing=6;spacingTop=-4;" vertex="1" parent="1">
          <mxGeometry x="280" y="300" width="170" height="80" as="geometry" />
        </mxCell>
        <mxCell id="eAyWANmD_xzuRq7Ga_uH-11" value="Mensagem, Valor3" style="rounded=1;whiteSpace=wrap;html=1;fontSize=12;glass=0;strokeWidth=1;shadow=0;" vertex="1" parent="1">
          <mxGeometry x="530" y="380" width="120" height="40" as="geometry" />
        </mxCell>
        <mxCell id="eAyWANmD_xzuRq7Ga_uH-14" value="" style="edgeStyle=orthogonalEdgeStyle;rounded=0;orthogonalLoop=1;jettySize=auto;html=1;" edge="1" parent="1" source="eAyWANmD_xzuRq7Ga_uH-12" target="eAyWANmD_xzuRq7Ga_uH-13">
          <mxGeometry relative="1" as="geometry" />
        </mxCell>
        <mxCell id="eAyWANmD_xzuRq7Ga_uH-12" value="Valor1" style="rounded=1;whiteSpace=wrap;html=1;fontSize=12;glass=0;strokeWidth=1;shadow=0;" vertex="1" parent="1">
          <mxGeometry x="100" y="500" width="120" height="40" as="geometry" />
        </mxCell>
        <mxCell id="eAyWANmD_xzuRq7Ga_uH-16" value="Sim" style="edgeStyle=orthogonalEdgeStyle;rounded=0;orthogonalLoop=1;jettySize=auto;html=1;" edge="1" parent="1" source="eAyWANmD_xzuRq7Ga_uH-13" target="eAyWANmD_xzuRq7Ga_uH-15">
          <mxGeometry relative="1" as="geometry" />
        </mxCell>
        <mxCell id="eAyWANmD_xzuRq7Ga_uH-18" value="NÃ£o" style="edgeStyle=orthogonalEdgeStyle;rounded=0;orthogonalLoop=1;jettySize=auto;html=1;entryX=0;entryY=0.5;entryDx=0;entryDy=0;exitX=0.5;exitY=1;exitDx=0;exitDy=0;" edge="1" parent="1" source="eAyWANmD_xzuRq7Ga_uH-13" target="eAyWANmD_xzuRq7Ga_uH-17">
          <mxGeometry relative="1" as="geometry" />
        </mxCell>
        <mxCell id="eAyWANmD_xzuRq7Ga_uH-13" value="Valor1 &amp;lt; 10" style="rhombus;whiteSpace=wrap;html=1;shadow=0;fontFamily=Helvetica;fontSize=12;align=center;strokeWidth=1;spacing=6;spacingTop=-4;" vertex="1" parent="1">
          <mxGeometry x="270" y="490" width="140" height="60" as="geometry" />
        </mxCell>
        <mxCell id="eAyWANmD_xzuRq7Ga_uH-20" style="edgeStyle=orthogonalEdgeStyle;rounded=0;orthogonalLoop=1;jettySize=auto;html=1;exitX=1;exitY=0.5;exitDx=0;exitDy=0;entryX=1;entryY=0.5;entryDx=0;entryDy=0;" edge="1" parent="1" source="eAyWANmD_xzuRq7Ga_uH-15" target="eAyWANmD_xzuRq7Ga_uH-19">
          <mxGeometry relative="1" as="geometry" />
        </mxCell>
        <mxCell id="eAyWANmD_xzuRq7Ga_uH-15" value="Resultado = Valor1 * 100" style="rounded=1;whiteSpace=wrap;html=1;fontSize=12;glass=0;strokeWidth=1;shadow=0;" vertex="1" parent="1">
          <mxGeometry x="480" y="500" width="140" height="40" as="geometry" />
        </mxCell>
        <mxCell id="eAyWANmD_xzuRq7Ga_uH-21" style="edgeStyle=orthogonalEdgeStyle;rounded=0;orthogonalLoop=1;jettySize=auto;html=1;exitX=1;exitY=0.5;exitDx=0;exitDy=0;entryX=1;entryY=0.5;entryDx=0;entryDy=0;" edge="1" parent="1" source="eAyWANmD_xzuRq7Ga_uH-17" target="eAyWANmD_xzuRq7Ga_uH-19">
          <mxGeometry relative="1" as="geometry">
            <mxPoint x="620" y="690" as="targetPoint" />
            <Array as="points">
              <mxPoint x="640" y="585" />
              <mxPoint x="640" y="650" />
            </Array>
          </mxGeometry>
        </mxCell>
        <mxCell id="eAyWANmD_xzuRq7Ga_uH-17" value="Resultado = Valor1 + 10" style="rounded=1;whiteSpace=wrap;html=1;fontSize=12;glass=0;strokeWidth=1;shadow=0;" vertex="1" parent="1">
          <mxGeometry x="480" y="565" width="140" height="40" as="geometry" />
        </mxCell>
        <mxCell id="eAyWANmD_xzuRq7Ga_uH-19" value="Mensagem, Rsultado" style="rounded=1;whiteSpace=wrap;html=1;fontSize=12;glass=0;strokeWidth=1;shadow=0;" vertex="1" parent="1">
          <mxGeometry x="480" y="630" width="140" height="40" as="geometry" />
        </mxCell>
      </root>
    </mxGraphModel>
  </diagram>
  <diagram id="OOtEgrwh6dH8ZlmOyfZh" name="Ex2">
    <mxGraphModel dx="712" dy="817" grid="1" gridSize="10" guides="1" tooltips="1" connect="1" arrows="1" fold="1" page="1" pageScale="1" pageWidth="827" pageHeight="1169" math="0" shadow="0">
      <root>
        <mxCell id="0" />
        <mxCell id="1" parent="0" />
      </root>
    </mxGraphModel>
  </diagram>
</mxfile>
